 http://www.asiatorrents.me/imgz/images/NvyG0.jpg



A Moment In Time (2013) PPVRIP EP


info:


General
Complete name                            : A Moment In Time (2013) PPVRIP EP.mp4
Format                                   : MPEG-4
Format profile                           : Sony PSP
Codec ID                                 : MSNV
File size                                : 2.50 GiB
Duration                                 : 1h 43mn
Overall bit rate                         : 3 456 Kbps
Genre                                    : Romance | Drama | Comedy
Country					 : Philippines
Language				 : Filipino | English | Dutch
IMDb Link				 : http://www.imdb.com/title/tt2705666/


Video
ID                                       : 1
Format                                   : AVC
Format/Info                              : Advanced Video Codec
Format profile                           : Main@L3.0
Format settings, CABAC                   : Yes
Format settings, ReFrames                : 2 frames
Codec ID                                 : avc1
Codec ID/Info                            : Advanced Video Coding
Duration                                 : 1h 43mn
Bit rate                                 : 3 328 Kbps
Width                                    : 1 280 pixels
Height                                   : 720 pixels
Display aspect ratio                     : 16:9
Frame rate mode                          : Constant
Frame rate                               : 30.000 fps
Color space                              : YUV
Chroma subsampling                       : 4:2:0
Bit depth                                : 8 bits
Scan type                                : Progressive
Bits/(Pixel*Frame)                       : 0.120
Stream size                              : 2.41 GiB (96%)


Audio
ID                                       : 2
Format                                   : AAC
Format/Info                              : Advanced Audio Codec
Format profile                           : LC
Codec ID                                 : 40
Duration                                 : 1h 43mn
Bit rate mode                            : Constant
Bit rate                                 : 119 Kbps
Nominal bit rate                         : 96.0 Kbps
Channel(s)                               : 2 channels
Channel positions                        : Front: L R
Sampling rate                            : 48.0 KHz
Compression mode                         : Lossy
Stream size                              : 88.6 MiB (3%)





cast:


Coco Martin : Patrick Javier
Julia Montes	: Jilliana Linden
Cherie Gil	: Karen Linden
Gabby Concepcion	: Steve Linden
Ella Cruz	: Mai-mai Javier
Joseph Marco	: Mori
Ivan Dorschner	: Brix
Manuel Chua	: Bodjie
Joj Agpangan	: Chummy
Jai Agpangan	: Yummy
PJ Endrinal	: Christian



plot:


After seeing her on the train, amateur artist Patrick becomes obsessed with Jillian. He pursues her relentlessly, 

despite not knowing anything about her. He eventually wins her over, only to learn that she was the driver of the 

car that ran over his mother years ago. This fact, along with other issues, causes Patrick to push Jillian away, 

even as she falls in love with him. Patrick eventually learns the error of his ways, but by then, 

he might be far too late.



Screenshot:

 
http://www.asiatorrents.me/imgz/images/Q62Df.jpg 
http://www.asiatorrents.me/imgz/images/eOR74.jpg 
http://www.asiatorrents.me/imgz/images/Ae2J0.jpg 
http://www.asiatorrents.me/imgz/images/uECc4.jpg 
http://www.asiatorrents.me/imgz/images/nS6Ca.jpg 
http://www.asiatorrents.me/imgz/images/q1LeV.jpg 
http://www.asiatorrents.me/imgz/images/zd5Q8.jpg 
http://www.asiatorrents.me/imgz/images/uMqkD.jpg 
http://www.asiatorrents.me/imgz/images/OuYk.jpg 
http://www.asiatorrents.me/imgz/images/s2NRx.jpg 
http://www.asiatorrents.me/imgz/images/1I5lg.jpg 
http://www.asiatorrents.me/imgz/images/8fUAc.jpg